<?xml version="1.0" standalone="no"?>
<!DOCTYPE svg PUBLIC "-//W3C//DTD SVG 20010904//EN"
 "http://www.w3.org/TR/2001/REC-SVG-20010904/DTD/svg10.dtd">
<svg version="1.0" xmlns="http://www.w3.org/2000/svg"
 width="200.000000pt" height="200.000000pt" viewBox="0 0 200.000000 200.000000"
 preserveAspectRatio="xMidYMid meet">

<g transform="translate(0.000000,200.000000) scale(0.100000,-0.100000)"
fill="#000000" stroke="none">
<path d="M885 1561 l-190 -99 0 -193 0 -194 35 -3 c19 -2 54 -1 77 3 l43 6 0
168 0 167 35 17 35 17 0 -175 c0 -96 4 -175 8 -175 4 0 39 11 78 23 l69 24 3
192 c2 170 4 192 18 187 9 -3 24 -6 35 -6 18 0 19 -9 19 -150 0 -82 3 -150 6
-150 3 0 37 16 75 36 l69 36 0 168 0 167 -92 12 c-51 7 -102 15 -113 17 -12 2
-95 -35 -210 -95z"/>
<path d="M1265 1134 c-11 -9 -41 -27 -67 -40 -45 -23 -48 -27 -48 -62 0 -34
-4 -40 -35 -55 -39 -19 -36 -23 -39 53 0 19 -5 35 -11 35 -5 0 -40 -9 -77 -19
l-68 -19 0 -139 0 -139 190 97 190 97 0 104 c0 57 -3 103 -7 103 -5 0 -17 -8
-28 -16z"/>
<path d="M690 927 l0 -93 80 -43 81 -43 -3 132 -3 131 -77 4 -78 4 0 -92z"/>
<path d="M1080 613 c-25 -9 -40 -35 -40 -68 0 -40 27 -65 68 -65 26 0 32 4 32
20 0 17 -3 19 -17 11 -26 -14 -53 5 -53 38 0 31 21 45 51 36 24 -8 26 20 3 29
-18 7 -23 7 -44 -1z"/>
<path d="M1186 599 c-52 -41 -25 -119 42 -119 60 0 85 81 36 119 -15 12 -32
21 -39 21 -7 0 -24 -9 -39 -21z m62 -21 c18 -18 15 -56 -6 -67 -24 -13 -52 4
-52 32 0 40 33 60 58 35z"/>
<path d="M534 599 c-5 -8 -19 -36 -32 -63 -22 -49 -22 -70 0 -48 15 15 68 16
68 2 0 -5 7 -10 16 -10 18 0 13 22 -21 89 -16 33 -24 41 -31 30z m16 -59 c9
-17 8 -20 -9 -20 -14 0 -18 5 -14 20 3 11 7 20 9 20 2 0 8 -9 14 -20z"/>
<path d="M620 545 c0 -51 3 -65 15 -65 10 0 15 10 15 28 l1 27 20 -27 c11 -16
28 -28 36 -28 14 0 13 3 -1 25 -13 19 -14 29 -4 49 15 34 -4 56 -48 56 l-34 0
0 -65z m55 25 c0 -7 -6 -15 -12 -17 -8 -3 -13 4 -13 17 0 13 5 20 13 18 6 -3
12 -11 12 -18z"/>
<path d="M740 545 c0 -51 3 -65 15 -65 10 0 15 10 15 28 l1 27 24 -27 c41 -47
62 -33 24 16 l-21 27 21 23 c25 26 26 36 7 36 -8 0 -24 -12 -35 -26 l-21 -27
0 27 c0 16 -5 26 -15 26 -12 0 -15 -14 -15 -65z"/>
<path d="M880 558 c-12 -29 -24 -59 -27 -65 -3 -7 2 -13 11 -13 9 0 16 5 16
10 0 6 14 10 30 10 17 0 30 -4 30 -10 0 -5 7 -10 15 -10 8 0 15 3 15 6 0 14
-53 124 -60 124 -4 0 -17 -24 -30 -52z m40 -24 c0 -8 -6 -14 -14 -14 -9 0 -12
7 -9 20 6 22 23 18 23 -6z"/>
<path d="M1320 545 c0 -37 4 -65 10 -65 6 0 10 11 10 25 0 14 4 25 8 25 5 0
15 -11 22 -25 7 -14 22 -25 32 -25 19 0 19 1 0 28 -17 24 -18 30 -6 46 21 29
1 56 -41 56 l-35 0 0 -65z m56 34 c10 -17 -13 -36 -27 -22 -12 12 -4 33 11 33
5 0 12 -5 16 -11z"/>
<path d="M1440 545 c0 -53 3 -65 16 -65 12 0 15 6 11 21 -4 16 1 23 24 31 23
8 29 16 29 38 0 29 -15 40 -56 40 -23 0 -24 -3 -24 -65z m55 25 c0 -7 -6 -15
-12 -17 -8 -3 -13 4 -13 17 0 13 5 20 13 18 6 -3 12 -11 12 -18z"/>
</g>
</svg>
